<?xml version="1.0" encoding="utf-8"?>
<!-- Generator: Adobe Illustrator 18.1.1, SVG Export Plug-In . SVG Version: 6.00 Build 0)  -->
<svg version="1.1" id="Layer_1" xmlns="http://www.w3.org/2000/svg" xmlns:xlink="http://www.w3.org/1999/xlink" x="0px" y="0px"
	 viewBox="0 0 300 300" enable-background="new 0 0 300 300" xml:space="preserve">
<g>
	<rect x="84.3" y="211.5" width="132.3" height="28"/>
	<rect x="65.6" y="252.9" width="169.6" height="27.1"/>
	<path d="M215.7,20.8c-0.3,0-0.6,0-0.8,0v0H82.6v0.1c-14.2,0.9-25.4,12.6-25.4,27c0,15,12.1,27.1,27.1,27.1c6.4,0,12.3-2.2,17-6
		v131.5h22.9V48.7h15.7v151.8h22.9V48.7h15.7v151.8h22.9V70.8c4.2,2.6,9.1,4.2,14.4,4.2c15,0,27.1-12.1,27.1-27.1
		C242.8,32.9,230.7,20.8,215.7,20.8z"/>
</g>
</svg>
