<?xml version="1.0" encoding="utf-8"?>
<!-- Generator: Adobe Illustrator 18.1.1, SVG Export Plug-In . SVG Version: 6.00 Build 0)  -->
<svg version="1.1" id="Layer_1" xmlns="http://www.w3.org/2000/svg" xmlns:xlink="http://www.w3.org/1999/xlink" x="0px" y="0px"
	 viewBox="0 0 300 300" enable-background="new 0 0 300 300" xml:space="preserve">
<g>
	<path d="M184.5,159.3c18.3-67.5,13.9-125.8,13.9-125.8c2.4,0.7,4.8,1.5,7.1,2.6c-7.1-3.4-14.5-6.3-22.3-8.4
		c-11.4-3.1-22.9-4.5-34.2-4.4c2.6,0,5.1,0.2,7.5,0.5c0,0-43.7,43.5-62,111.1c-18.3,67.5-0.9,127.6-0.9,127.6
		c-40.7-20.6-72.2-74.9-54-142.4c17-62.8,69.6-96.6,108.4-96.7C93,24.2,42.9,61.1,27.8,116.9C9.5,184.4,49.4,254,116.9,272.2
		c7.6,2.1,15.2,3.3,22.7,4c-2.2-0.3-4.4-0.7-6.6-1.3C133,274.9,166.2,226.8,184.5,159.3z"/>
	<path d="M242.5,175c-16.2,60-57.6,101-95.5,101.6c57,1.4,109.7-36,125.3-93.5c16.2-59.7-13.2-120.9-66.8-146.9
		C240,52,259.6,111.7,242.5,175z"/>
	<path d="M147,276.6"/>
	<path d="M139.6,276.2"/>
	<path d="M205.4,36.1C205.4,36.1,205.5,36.1,205.4,36.1C205.5,36.1,205.4,36.1,205.4,36.1z"/>
</g>
</svg>
