<?xml version="1.0" encoding="utf-8"?>
<!-- Generator: Adobe Illustrator 18.1.1, SVG Export Plug-In . SVG Version: 6.00 Build 0)  -->
<svg version="1.1" id="Layer_1" xmlns="http://www.w3.org/2000/svg" xmlns:xlink="http://www.w3.org/1999/xlink" x="0px" y="0px"
	 viewBox="0 0 300 300" enable-background="new 0 0 300 300" xml:space="preserve">
<g>
	<path d="M246.7,172.6c-6,0-11.5,1.6-16.4,4.3c0.6-5.8,1-11.9,1-18.1H62.2c0,72.8,48.6,122.2,48.6,122.2h72c0,0,21.5-21.5,35.9-57.6
		c5.9,9.3,16.2,15.5,28.1,15.5c18.3,0,33.2-14.9,33.2-33.2C279.8,187.4,265,172.6,246.7,172.6z M246.7,225.6
		c-10.9,0-19.8-8.9-19.8-19.8c0-11,8.9-19.8,19.8-19.8c10.9,0,19.8,8.9,19.8,19.8C266.5,216.7,257.6,225.6,246.7,225.6z"/>
	<path d="M115.9,79.1C112.6,91,114.3,91,129,128.8C108,103.9,101.7,92,101.7,79.1c0-12.9,33.4-27.3,11.2-60.1
		C151.1,43,120.9,61.3,115.9,79.1z"/>
	<path d="M161,82.2c-3.3,11.9-1.6,11.9,13.1,49.8C153,107,146.7,95.1,146.7,82.2c0-12.9,33.4-27.3,11.2-60.1
		C196.1,46.1,165.9,64.4,161,82.2z"/>
</g>
</svg>
