<?xml version="1.0" encoding="utf-8"?>
<!-- Generator: Adobe Illustrator 18.1.1, SVG Export Plug-In . SVG Version: 6.00 Build 0)  -->
<svg version="1.1" id="Layer_1" xmlns="http://www.w3.org/2000/svg" xmlns:xlink="http://www.w3.org/1999/xlink" x="0px" y="0px"
	 viewBox="0 0 300 300" enable-background="new 0 0 300 300" xml:space="preserve">
<g>
	<path d="M267.4,207.7H103.3c-5.2-9.9-15.4-16.7-27.4-16.7c-11.9,0-22.2,6.8-27.4,16.7H34.3c-7.9,0-14.3,6.4-14.3,14.3
		s6.4,14.3,14.3,14.3h14.2c5.2,9.9,15.4,16.7,27.4,16.7c11.9,0,22.2-6.8,27.4-16.7h164.1c7.9,0,14.3-6.4,14.3-14.3
		S275.3,207.7,267.4,207.7z"/>
	<path d="M267.4,135.7h-22c-5.2-9.9-15.4-16.7-27.4-16.7c-11.9,0-22.2,6.8-27.4,16.7H34.3c-7.9,0-14.3,6.4-14.3,14.3
		c0,7.9,6.4,14.3,14.3,14.3h156.3c5.2,9.9,15.4,16.7,27.4,16.7c11.9,0,22.2-6.8,27.4-16.7h22c7.9,0,14.3-6.4,14.3-14.3
		C281.7,142.1,275.3,135.7,267.4,135.7z"/>
	<path d="M34.3,92.3h56.1c5.2,9.9,15.4,16.7,27.4,16.7c11.9,0,22.2-6.8,27.4-16.7h122.3c7.9,0,14.3-6.4,14.3-14.3
		s-6.4-14.3-14.3-14.3H145.1c-5.2-9.9-15.4-16.7-27.4-16.7c-11.9,0-22.2,6.8-27.4,16.7H34.3C26.4,63.6,20,70,20,77.9
		S26.4,92.3,34.3,92.3z"/>
</g>
</svg>
