<?xml version="1.0" encoding="utf-8"?>
<!-- Generator: Adobe Illustrator 18.1.1, SVG Export Plug-In . SVG Version: 6.00 Build 0)  -->
<svg version="1.1" id="Layer_1" xmlns="http://www.w3.org/2000/svg" xmlns:xlink="http://www.w3.org/1999/xlink" x="0px" y="0px"
	 viewBox="0 0 300 300" enable-background="new 0 0 300 300" xml:space="preserve">
<g>
	<path d="M267.2,113.5c-8.8,0-12.4,4.4-12.4,10.6c0,1.1,0,3.4,0,6.4L126,118.9l-11.6,51.9H45.2c0,0,0-88.9,0-94.3
		c0-4.2-3.6-10.6-12.1-10.6c-8.4,0-13.1,6-13.1,10.6c0,4.6,0,157.7,0,157.7h25.2v-28.9h209.6v28.9H280c0,0,0-103.4,0-110
		S276,113.5,267.2,113.5z"/>
	<circle cx="84.4" cy="131.6" r="23.3"/>
</g>
</svg>
