<?xml version="1.0" encoding="utf-8"?>
<!-- Generator: Adobe Illustrator 18.1.1, SVG Export Plug-In . SVG Version: 6.00 Build 0)  -->
<svg version="1.1" id="Layer_1" xmlns="http://www.w3.org/2000/svg" xmlns:xlink="http://www.w3.org/1999/xlink" x="0px" y="0px"
	 viewBox="0 0 300 300" enable-background="new 0 0 300 300" xml:space="preserve">
<path d="M279,135v30c0,3.7-3.1,7.4-6.8,8.1l-38.4,7.1c-3.7,0.6-5.3,3.7-3.1,6.8l22.3,32.8c1.9,3.1,1.5,8.1-1.2,10.8l-21.1,21.1
	c-2.8,2.8-7.4,3.1-10.5,0.9l-32.8-22c-3.1-2.2-6.5-0.9-7.1,2.8l-7.1,38.7c-0.6,3.7-4.3,6.8-8.1,6.8h-30c-3.7,0-7.4-3.1-8.1-6.8
	l-7.1-38.7c-0.6-3.7-4-5-7.1-2.8l-32.5,22c-3.4,2.2-8.1,1.9-10.8-0.9l-21.1-21.1c-2.8-2.8-3.1-7.7-1.2-10.8L69.3,187
	c2.2-3.1,0.6-6.2-3.1-6.8l-38.4-7.1c-3.7-0.6-6.8-4.3-6.8-8.1v-30c0-3.7,3.1-7.4,6.8-8.1l38.4-7.1c3.7-0.9,5.3-4,3.1-7.1L47,79.9
	c-1.9-3.1-1.5-7.7,1.2-10.5l21.1-21.1c2.8-2.8,7.4-3.4,10.8-1.2l32.5,22.3c3.1,1.9,6.5,0.6,7.1-3.1l7.1-38.4
	c0.6-3.7,4.3-6.8,8.1-6.8h30c3.7,0,7.4,3.1,8.1,6.8l7.1,38.4c0.6,3.7,4,5,7.1,3.1L220.2,47c3.1-2.2,7.7-1.6,10.5,1.2l21.1,21.1
	c2.8,2.8,3.1,7.4,1.2,10.5l-22.3,32.8c-2.2,3.1-0.6,6.2,3.1,7.1l38.4,7.1C275.9,127.5,279,131.3,279,135z M196.6,150.2
	c0-25.7-20.7-46.8-46.8-46.8c-25.7,0-46.5,21.1-46.5,46.8c0,25.7,20.7,46.5,46.5,46.5C175.9,196.6,196.6,175.9,196.6,150.2z"/>
</svg>
