<?xml version="1.0" encoding="utf-8"?>
<!-- Generator: Adobe Illustrator 18.1.1, SVG Export Plug-In . SVG Version: 6.00 Build 0)  -->
<svg version="1.1" id="Layer_1" xmlns="http://www.w3.org/2000/svg" xmlns:xlink="http://www.w3.org/1999/xlink" x="0px" y="0px"
	 viewBox="0 0 300 300" enable-background="new 0 0 300 300" xml:space="preserve">
<g>
	<path d="M44.4,203l0-75.2c0-5.6,4.5-10.1,10.1-10.1h39.3c5.6,0,10.1,4.5,10.1,10.1v75.2h20.6l0.1-47.1c0-0.8,0.1-1.6,0.3-2.4
		l21.7-89.9c1.1-4.5,5.1-7.7,9.8-7.7h0.1c4.6,0,8.7,3.2,9.8,7.7l22.6,90.2c0.2,0.8,0.3,1.6,0.3,2.5v46.9h11.4l30.6-78.9
		c1.5-3.8,5-6.3,9.1-6.5c4.1-0.1,7.8,2.2,9.5,5.8l25.6,54.7c2-8.9,3.1-18.2,3.1-27.8c0-70.7-57.3-128-128-128
		c-70.7,0-128,57.3-128,128c0,18.7,4.1,36.5,11.4,52.5H44.4z"/>
	<path d="M241.5,153.6L217,216.9c-1.5,3.9-5.3,6.4-9.4,6.4H179c-5.6,0-10.1-4.5-10.1-10.1v-55.7l-12.3-49l-11.7,48.7l-0.1,56
		c0,5.6-4.5,10.1-10.1,10.1H93.9c-5.6,0-10.1-4.5-10.1-10.1V138H64.6l0,75.2c0,5.6-4.5,10.1-10.1,10.1h-9.2
		c23.1,33.3,61.6,55.2,105.2,55.2c50.9,0,94.7-29.8,115.3-72.8L241.5,153.6z"/>
</g>
</svg>
